PathFileType	4	(X/Y/Z)	D:\TRACE\spotREDO_2-26-24\spot_baseline_5-v60.trc
DataRate	CameraRate	NumFrames	NumMarkers	Units	OrigDataRate	OrigDataStartFrame	OrigNumFrames
100.00	100.00	      31	9	mm	100.00	1	      7000
Frame#	Time	front left toe			Front right toe			aft left toe			aft right toe			Arm			FL body			FR body			AL Body			AR Body			
		X1	Y1	Z1	X2	Y2	Z2	X3	Y3	Z3	X4	Y4	Z4	X5	Y5	Z5	X6	Y6	Z6	X7	Y7	Z7	X8	Y8	Z8	X9	Y9	Z9	

1	0.000	-216.49785	22.85511	-113.15899	272.49942	26.27660	-101.29166	-270.46826	23.05798	432.00620	137.55673	21.68460	429.81766	50.07901	641.06488	-320.36063	-35.10443	383.42145	-285.63245	120.33248	389.16187	-272.01428	-122.62722	458.12924	590.60919	25.19330	459.35831	606.01910	
2	0.010	-216.57121	22.81632	-113.26463	272.47244	26.19904	-101.28036	-270.85165	23.17883	431.84717	137.33432	21.76628	429.72128	50.01869	643.97394	-319.23138	-35.01928	386.07324	-284.99142	120.35917	391.95441	-271.27966	-123.72275	460.00455	591.25751	24.29309	461.40280	606.75647	
3	0.020	-216.71910	22.70926	-113.40132	272.47305	26.14921	-101.42104	-270.91766	23.10303	431.67413	137.36620	21.81484	429.63019	49.54449	646.88068	-318.31015	-35.01678	388.97745	-283.98636	120.44223	394.92224	-270.30914	-124.41659	462.07529	591.99432	23.37009	463.50674	607.70526	
4	0.030	-216.85129	22.65123	-113.51649	272.43314	26.10734	-101.46013	-270.95917	22.95272	431.54520	137.16579	21.83169	429.50125	49.33562	649.98047	-317.40533	-35.14734	391.91238	-283.55481	120.13852	397.90985	-269.47665	-125.25754	464.30179	592.57770	22.68119	465.82751	608.60052	
5	0.040	-216.97441	22.67683	-113.69547	272.54776	26.04093	-101.49503	-270.98727	22.87789	431.51425	137.16623	21.82927	429.39908	49.41673	653.11945	-316.12244	-35.18882	395.15671	-282.74493	120.22698	401.22321	-268.65079	-125.89994	466.54572	593.36578	22.12873	468.17688	609.41046	
6	0.050	-217.05301	22.67743	-113.78787	272.57932	26.04774	-101.49770	-270.99442	22.88127	431.51566	137.13681	21.82973	429.27118	49.17587	656.51379	-315.16583	-35.42949	398.64319	-282.07623	120.07069	404.65372	-267.97067	-126.64780	469.04160	594.08630	21.24760	470.57928	609.94513	
7	0.060	-217.17851	22.70353	-113.92973	272.56970	26.00264	-101.60240	-270.99091	22.85706	431.47287	137.02313	21.73921	429.16440	48.78331	660.24225	-314.33377	-35.47590	402.15601	-281.60233	119.81456	408.29510	-267.32025	-126.99477	471.55173	594.65588	20.73201	473.32919	610.77856	
8	0.070	-217.27422	22.55041	-114.11800	272.64471	26.03215	-101.62779	-271.02280	22.79395	431.51144	136.96062	21.66537	429.04013	48.63765	664.04663	-313.31979	-35.69121	405.88651	-280.96069	119.85404	412.00201	-266.34076	-127.92924	474.33966	595.32330	20.30155	475.70071	611.72620	
9	0.080	-217.27148	22.34796	-114.26370	272.74393	26.00916	-101.76218	-271.06638	22.75925	431.48340	136.87889	21.63185	428.93820	48.54251	668.08661	-312.46735	-35.67109	409.77948	-280.32285	119.50203	416.01953	-265.72958	-128.39603	477.05194	596.16272	19.58192	478.76492	612.39117	
10	0.090	-217.23386	22.18882	-114.40791	272.72134	25.94789	-101.88239	-271.09274	22.77287	431.37350	136.68710	21.64507	428.77429	48.09065	672.39215	-311.35440	-35.85138	413.82117	-279.68341	119.30183	419.99377	-265.16559	-129.01932	479.96494	596.63226	18.65407	481.54434	612.90002	
11	0.100	-217.23647	22.13489	-114.47935	272.87918	25.94965	-101.90816	-271.10339	22.73878	431.31555	136.69875	21.71285	428.57275	47.83909	676.67365	-310.52521	-36.30832	418.30386	-279.09036	119.06055	424.40128	-264.39966	-129.62840	482.93286	597.32971	18.28401	484.51752	613.48450	
12	0.110	-217.25441	22.06945	-114.55337	272.86533	25.97006	-101.98279	-271.14166	22.73900	431.28952	136.70642	21.72583	428.39276	47.87514	681.12457	-309.09628	-36.42685	422.88547	-278.42627	118.72791	428.87308	-263.85678	-130.22108	486.21313	598.03137	17.67064	487.71274	614.55145	
13	0.120	-217.20284	21.89855	-114.65314	272.90143	25.90503	-102.20374	-271.16202	22.63678	431.21588	136.63425	21.70918	428.16656	47.80595	685.77301	-308.14304	-36.74782	427.58633	-277.86624	118.74023	433.43527	-262.97757	-130.77292	489.42026	598.72681	17.35130	491.08835	615.40405	
14	0.130	-217.18271	21.81716	-114.68668	272.94174	25.84486	-102.34131	-271.20123	22.43119	430.97452	136.61574	21.68333	428.08252	47.76202	690.33826	-307.10233	-36.88445	432.12906	-277.13376	118.51299	437.94061	-262.26682	-131.42540	492.73007	599.41797	16.51285	494.27472	615.82904	
15	0.140	-217.17828	21.65421	-114.75056	273.01614	25.82972	-102.42403	-271.19476	22.21790	430.70129	136.70778	21.71611	427.89865	47.75396	695.27008	-306.04651	-36.88130	436.90494	-276.45743	118.21562	442.80020	-261.80856	-131.96761	496.30765	600.00116	15.81391	497.68472	616.56000	
16	0.150	-217.11952	21.59736	-114.82948	273.11237	25.83496	-102.55694	-271.16141	22.07539	430.43430	136.68666	21.71812	427.69604	47.49546	700.34509	-305.21487	-36.97196	441.84021	-275.88977	118.18302	447.68732	-260.85519	-132.48354	499.81137	600.54132	15.05074	501.13336	617.25507	
17	0.160	-217.40286	21.69812	-114.91978	273.17963	25.77560	-102.71630	-271.29059	22.14770	430.15292	136.71504	21.76525	427.49841	47.41578	705.47235	-304.01813	-37.27224	446.75839	-275.32498	117.93999	452.60071	-260.38840	-133.21179	503.49173	601.37085	14.62894	504.76956	618.05933	
18	0.170	-217.61176	21.99613	-115.25281	273.23236	25.79268	-102.82288	-271.39346	22.14080	429.89288	136.57227	21.81710	427.31741	47.06706	710.46790	-303.10278	-37.34934	451.75238	-274.68716	117.80338	457.65637	-259.66016	-133.96790	507.09518	601.77588	13.96947	508.53055	618.75470	
19	0.180	-217.83932	22.02212	-115.59163	273.24445	25.76999	-103.03359	-271.44119	21.94950	429.76865	136.62837	21.92893	427.10428	47.03697	715.39465	-302.08420	-37.63131	456.81396	-274.35010	117.70634	462.51761	-258.92117	-134.60362	510.84171	602.47882	13.27392	512.22229	619.21466	
20	0.190	-217.98718	21.99064	-115.89414	273.28656	25.70571	-103.36908	-271.44196	21.84218	429.62732	136.29607	21.84417	426.84943	47.09013	720.47070	-301.18839	-37.85757	462.04977	-273.92908	117.58469	467.44260	-258.28610	-135.19783	514.64270	603.01538	12.52765	515.74811	620.08075	
21	0.200	-218.01222	21.84567	-116.19492	273.44611	25.65841	-103.57760	-271.51480	21.71247	429.46130	136.65883	22.09944	426.73267	47.15727	725.57312	-299.89322	-38.08875	466.97958	-273.33932	117.63874	472.26572	-257.75259	-135.92171	518.36475	603.54047	11.94257	519.47601	620.72614	
22	0.210	-218.06793	21.81777	-116.44569	273.54297	25.66342	-103.62202	-271.51361	21.63391	429.35611	136.75224	22.11397	426.61502	46.79622	730.79340	-298.99542	-37.83440	471.78870	-272.46783	117.71307	477.30670	-256.77124	-136.40854	522.28253	604.19812	11.19641	523.36188	621.12811	
23	0.220	-218.03935	21.91347	-116.64510	273.63959	25.63802	-103.85300	-271.51816	21.58833	429.27380	136.80399	22.20298	426.28461	46.77646	735.75153	-298.14389	-38.06420	476.78021	-272.12015	117.70417	482.39310	-256.28860	-136.96848	525.86810	604.56305	11.13298	526.96655	622.33417	
24	0.230	-218.01396	21.94209	-116.92229	273.68408	25.63634	-104.02528	-271.55466	21.61547	429.09674	137.04330	22.76244	426.44351	46.57665	740.83154	-297.18796	-38.17716	481.94119	-271.59921	116.73666	487.55930	-255.92465	-137.83844	529.75189	605.26813	9.99040	530.55798	622.44049	
25	0.240	-218.00407	21.78465	-117.11668	273.79733	25.75312	-104.05254	-271.55267	21.62471	428.88968	136.76634	22.33229	425.82309	46.71433	745.65961	-296.31958	-38.20361	486.72556	-271.17404	116.51482	492.37311	-255.19733	-138.36671	533.23273	605.64740	9.73117	534.25928	623.31964	
26	0.250	-218.02426	21.82362	-117.29388	273.83282	25.71703	-104.18708	-271.68597	21.58055	428.55920	136.69798	22.40463	425.54990	46.58555	750.36438	-295.51837	-38.63327	491.68518	-270.65829	116.34093	497.12610	-254.86499	-138.98769	536.82544	605.98865	8.98437	537.62744	623.62457	
27	0.260	-218.04541	21.79730	-117.46268	273.98117	25.75834	-104.24198	-271.70456	21.46906	428.34555	136.74785	22.55855	425.23145	46.31503	755.20117	-294.69891	-38.90883	496.31876	-270.36874	116.10149	501.83081	-254.47955	-139.87331	540.29443	606.50049	8.26227	541.27979	624.26416	
28	0.270	-218.08356	21.70976	-117.64715	274.13101	25.78510	-104.42268	-271.77441	21.50855	428.12366	136.81639	22.57765	425.12576	46.00938	759.79260	-293.91974	-39.18546	500.98843	-269.91837	115.98583	506.44455	-253.87682	-140.80864	543.80420	606.74591	7.75849	544.63568	624.63770	
29	0.280	-218.12335	21.71640	-117.84296	274.00525	25.63570	-104.75292	-271.74500	21.50598	427.92136	136.78682	22.45734	424.98108	45.92995	764.39337	-293.13879	-39.20163	505.52521	-269.46490	115.83474	510.86176	-253.25159	-141.36220	546.99225	607.07465	6.92502	547.92975	625.10632	
30	0.290	-218.12120	21.68305	-118.01478	274.01794	25.48357	-104.97861	-271.73495	21.30132	427.76938	136.87119	22.57196	424.91122	45.87379	768.59509	-292.21075	-39.21883	510.02206	-268.95029	115.56415	515.07617	-252.85127	-142.21390	550.15228	607.48981	6.75614	551.01813	625.94116	
31	0.300	-218.14586	21.63413	-118.26135	274.03500	25.56680	-105.12764	-271.73447	21.05640	427.61652	136.66388	22.62432	424.70380	45.87780	772.70410	-291.69595	-39.37276	513.98737	-268.61008	115.33537	518.93671	-252.35567	-143.14995	552.98810	607.72589	5.89738	554.01538	626.23151	
